<svg width="43" height="143" viewBox="0 0 43 143" fill="none" xmlns="http://www.w3.org/2000/svg">
<g clip-path="url(#clip0_8281_42001)">
<path d="M18.04 113.235C17.3144 115 17.6143 116.6 18.8411 117.965C17.8136 119.147 17.3047 120.565 17.8698 122.117C18.3032 123.311 19.3655 124.677 20.9348 124.747L23.9264 124.88C22.9647 126.941 23.6729 129.11 25.3931 130.12C27.1114 131.129 29.4296 130.684 30.5886 129.029C31.7632 127.35 31.5213 125.271 29.954 123.791C31.8522 122.168 31.7419 119.573 29.954 118.023C31.0143 116.933 31.5774 115.672 31.2388 114.193C30.9776 113.056 30.0604 111.821 28.671 111.409C27.5874 111.086 26.4013 111.175 25.0022 111.124C25.8517 109.406 25.5615 107.622 24.1315 106.341C25.3583 105.134 25.7937 103.632 25.3157 102.181C24.4256 99.4852 21.6934 99.4369 19.1623 99.4388C19.7545 97.7553 19.708 95.9248 18.3109 94.5412C19.9828 92.8423 19.8899 90.4235 18.3322 88.653C19.9383 87.0469 19.9596 84.5894 18.3187 82.9118C19.8473 81.2361 20.0389 78.8308 18.34 77.0409C19.8919 75.3788 19.9789 72.9077 18.34 71.172C19.9054 69.4944 19.9847 67.0427 18.309 65.3244C19.9693 63.6409 19.917 61.1506 18.309 59.4826C19.9712 57.7604 19.9131 55.3184 18.309 53.6698C19.9422 51.9321 19.9073 49.4959 18.34 47.8009C19.5552 46.4115 19.8512 44.8577 19.1585 42.9614L21.6721 42.8182C23.3807 42.7214 24.6559 41.8236 25.2344 40.3801C25.8536 38.832 25.3892 37.2879 24.1121 35.9972C25.544 34.7317 25.8904 32.9902 24.9655 31.2816L27.8874 31.121C29.4702 31.0339 30.6061 29.8671 31.0956 28.6074C31.6935 27.0633 31.2078 25.5501 29.9327 24.3658C31.829 22.754 31.7613 20.1881 29.9791 18.5221C31.0879 17.2295 31.7458 15.6118 31.0221 14.0677C30.0836 12.0649 27.7461 11.1477 25.8362 11.9972C23.8025 12.9009 22.8892 15.2384 23.9186 17.4772L21.107 17.5855C19.5165 17.6475 18.3845 18.8897 17.8949 20.1514C17.3086 21.6607 17.7595 23.1603 18.8702 24.3639C17.6047 25.7242 17.386 27.369 18.0071 29.1279L15.3194 29.2247C13.6572 29.2847 12.6239 30.5211 12.0918 31.7479C11.3932 33.3579 12.0647 34.813 12.9606 36.0398C11.8306 37.4775 11.4784 39.1184 12.1885 40.9567L9.88974 40.9973C8.1695 41.0264 6.85756 41.9552 6.28673 43.3677C5.63463 44.9815 6.0197 46.5683 7.25037 47.8686C5.50305 49.5656 5.65978 51.9128 7.2465 53.6137C6.42218 54.4302 5.95197 55.3784 6.03711 56.5007L6.18805 58.5073L3.31261 58.6196C1.71815 58.6815 0.63067 59.9934 0.204966 61.2512C-0.315554 62.7934 0.204968 64.2369 1.395 65.3495C-0.456809 66.9595 -0.439396 69.5698 1.40468 71.1488C-0.429721 72.8439 -0.41811 75.3652 1.37565 77.0525C0.251407 78.1497 -0.271047 79.5062 0.164332 81.0251C0.990585 83.9122 3.82345 83.9354 6.36026 83.9025C5.68688 85.7292 5.94423 87.4262 7.23682 88.7478C5.61915 90.5261 5.57851 92.7784 7.22521 94.4793C6.09323 95.7429 5.63463 97.318 6.2519 98.897C6.77242 100.226 8.04373 101.308 9.70011 101.36L12.2021 101.44C11.4726 103.344 11.8228 104.963 13.0516 106.385C11.8035 107.591 11.5152 109.124 12.1073 110.627C12.6471 112.001 13.7888 113.069 15.3581 113.133L18.042 113.241L18.04 113.235Z" fill="#E04000"/>
<path d="M39.6912 134.557C37.3692 134.172 35.5097 135.775 35.2097 137.868C34.9098 139.962 36.2895 141.99 38.5051 142.309C40.5504 142.603 42.6131 141.241 42.9324 139.194C43.273 137.009 42.0404 134.948 39.6893 134.557H39.6912Z" fill="#E04000"/>
<path d="M39.883 0.0906096C37.6016 -0.389275 35.6144 1.07166 35.2332 3.18664C34.8442 5.3558 36.1349 7.35661 38.3834 7.76296C40.4074 8.12868 42.4469 6.91349 42.8978 4.82754C43.3622 2.67773 42.2244 0.584039 39.883 0.0906096Z" fill="#E04000"/>
<path d="M33.8879 5.90387C31.5969 5.49946 29.6522 7.06102 29.3716 9.17019C29.091 11.2794 30.4649 13.3227 32.6476 13.644C34.7064 13.9458 36.7034 12.5952 37.0962 10.4957C37.489 8.39618 36.2486 6.3199 33.8899 5.90387H33.8879Z" fill="#E04000"/>
<path d="M34.0839 128.756C31.7773 128.263 29.8055 129.739 29.4127 131.848C29.0122 133.998 30.27 136.045 32.5378 136.444C34.5328 136.794 36.611 135.614 37.0715 133.505C37.5321 131.396 36.3672 129.244 34.0839 128.756Z" fill="#E04000"/>
</g>
<defs>
<clipPath id="clip0_8281_42001">
<rect width="43" height="142.348" fill="white" transform="matrix(-1 0 0 1 43 0)"/>
</clipPath>
</defs>
</svg>
